<svg width="15" height="15" viewBox="0 0 15 15" fill="none" xmlns="http://www.w3.org/2000/svg">
<path id="Vector" fill-rule="evenodd" clip-rule="evenodd" d="M0.545962 14.6883C0.412016 14.5543 0.336764 14.3726 0.336765 14.1832C0.336765 13.9938 0.412015 13.8121 0.545961 13.6782L12.4579 1.76621L6.10144 1.76722C5.91178 1.76722 5.72988 1.69187 5.59576 1.55775C5.46165 1.42364 5.3863 1.24174 5.3863 1.05207C5.3863 0.862405 5.46165 0.680506 5.59576 0.546391C5.72988 0.412276 5.91178 0.33693 6.10144 0.33693L14.1821 0.336932C14.2761 0.336813 14.3691 0.35523 14.456 0.391128C14.5428 0.427025 14.6217 0.479697 14.6881 0.546128C14.7545 0.612558 14.8072 0.691442 14.8431 0.77826C14.879 0.865079 14.8974 0.958128 14.8973 1.05208L14.8973 9.13278C14.8973 9.22669 14.8788 9.31969 14.8429 9.40645C14.8069 9.49322 14.7542 9.57205 14.6878 9.63846C14.5537 9.77258 14.3718 9.84792 14.1822 9.84792C13.9925 9.84792 13.8106 9.77258 13.6765 9.63846C13.5424 9.50435 13.467 9.32245 13.467 9.13278L13.468 2.77629L1.55605 14.6883C1.4221 14.8222 1.24043 14.8975 1.05101 14.8975C0.861576 14.8975 0.679908 14.8222 0.545962 14.6883Z" fill="#293156"/>
</svg>
