<svg width="16" height="8" viewBox="0 0 16 8" fill="none" xmlns="http://www.w3.org/2000/svg">
<path id="Vector" d="M15.6902 0.272117C15.7884 0.3578 15.8663 0.459588 15.9195 0.571651C15.9726 0.683715 16 0.803852 16 0.92518C16 1.04651 15.9726 1.16664 15.9195 1.27871C15.8663 1.39077 15.7884 1.49256 15.6902 1.57824L8.5949 7.7842C8.51685 7.85261 8.42414 7.90688 8.32208 7.94391C8.22002 7.98094 8.11061 8 8.00011 8C7.88962 8 7.78021 7.98094 7.67815 7.94391C7.57609 7.90688 7.48338 7.85261 7.40532 7.7842L0.310048 1.57824C-0.10335 1.21666 -0.10335 0.6337 0.310048 0.272117C0.723447 -0.089467 1.38995 -0.089467 1.80335 0.272117L7.99589 5.68849L14.1969 0.264738C14.6103 -0.089467 15.2768 -0.089467 15.6902 0.272117Z" fill="#293156"/>
</svg>
